<svg width="836" height="169" viewBox="0 0 836 169" fill="none" xmlns="http://www.w3.org/2000/svg">
<path d="M433.541 100.749C433.523 97.2701 433.661 94.5033 433.458 91.7618C432.777 82.5599 427.769 77.4656 418.828 76.6992C409.446 75.8951 403.069 80.1074 401.07 89.0654C398.643 99.9401 400.086 111.032 400.17 122.008C400.22 128.475 398.296 130.901 391.642 130.878C384.928 130.855 383.809 127.678 383.888 122.003C384.117 105.474 383.954 88.9402 383.996 72.4082C384.019 63.1243 389.871 59.6704 398.238 64.2259C400.264 65.3286 401.646 66.8042 404.194 65.4661C418.785 57.8036 431.691 60.9781 443.564 72.2262C448.871 68.1442 454.004 63.9494 460.806 62.3332C480.491 57.6557 497.255 69.1568 499.466 89.1458C500.738 100.642 499.91 112.168 500.163 123.678C500.306 130.205 496.172 130.662 491.188 130.661C486.131 130.659 483.12 129.262 483.263 123.415C483.502 113.652 483.364 103.878 483.25 94.1101C483.121 83.0784 477.223 76.7899 467.047 76.6206C457.047 76.4543 450.181 82.7485 449.73 93.3571C449.305 103.359 449.398 113.398 449.686 123.409C449.853 129.171 447.186 130.843 441.976 130.751C436.827 130.661 433.182 129.682 433.471 123.262C433.798 116.013 433.543 108.737 433.541 100.749Z" fill="white"/>
<path d="M75.8843 38.4717C95.7166 39.7133 111.107 47.216 118.992 65.5671C126.146 82.2142 124.429 98.4562 113.444 113.062C104.344 125.162 90.9823 129.444 76.6227 130.424C66.1657 131.137 55.6221 130.54 45.1177 130.617C40.1917 130.652 37.9662 128.69 38.0004 123.441C38.1697 97.4275 38.1575 71.4121 38.0198 45.3986C37.9922 40.203 40.0273 38.2775 45.1523 38.3957C55.1526 38.6265 65.1618 38.4664 75.8843 38.4717ZM97.284 105.911C106.662 95.5175 108.251 83.5906 102.954 71.073C97.7857 58.8614 87.4269 54.0763 74.6231 53.9435C69.6237 53.8917 64.6228 53.9988 59.6226 53.9999C55.9589 54.0007 54.1347 55.6385 54.1474 59.4572C54.2034 76.2082 54.1585 92.9595 54.1742 109.711C54.1764 112.084 54.6184 114.656 57.4759 114.765C71.1289 115.284 85.1951 117.496 97.284 105.911Z" fill="white"/>
<path d="M349.776 129.639C326.963 135.777 307.752 126.737 302.367 106.898C298.661 93.2476 301.107 80.4169 312.239 70.5903C323.397 60.7414 336.245 58.7002 349.993 64.2857C363.457 69.7559 369.517 80.6981 371.204 94.5845C371.979 100.963 369.427 103.768 362.825 103.66C348.362 103.423 333.893 103.586 318.601 103.586C319.484 111.616 324.589 114.922 330.723 116.469C337.694 118.227 344.832 117.955 350.604 112.835C356.335 107.752 360.035 112.151 363.184 115.669C367.278 120.242 361.893 122.179 359.398 124.256C356.763 126.45 353.396 127.765 349.776 129.639ZM319.331 85.4107C318.703 87.0114 317.551 89.5033 320.131 89.5794C331.158 89.9049 342.2 89.718 353.776 89.718C347.507 73.1607 330.881 71.3795 319.331 85.4107Z" fill="white"/>
<path d="M140.959 75.3754C151.146 63.4874 163.346 58.8021 178.195 62.6309C191.713 66.1166 202.205 73.7272 205.017 87.9648C207.489 100.478 205.788 113.395 205.778 126.135C205.776 129.356 203.305 130.082 200.671 130.517C194.72 131.498 191.996 130.329 189.065 125.412C169.973 134.954 154.467 133.246 142.764 120.314C132.142 108.575 131.27 90.4972 140.959 75.3754ZM154.717 109.865C163.228 118.367 173.79 119.525 182.235 112.882C190.303 106.536 192.293 94.7938 186.819 85.8373C181.408 76.9832 170.572 73.7317 161.41 78.0303C150.242 83.2707 146.751 99.2903 154.717 109.865Z" fill="white"/>
<path d="M284.246 76.389C291.116 92.824 287.862 109.501 287.961 125.874C287.997 131.699 282.42 130.397 278.629 130.571C274.233 130.772 271.462 129.065 271.473 124.095C271.495 113.085 271.648 102.063 271.203 91.0679C270.84 82.0673 265.054 76.8603 256.229 76.5983C246.772 76.3175 240.012 81.8167 239.032 90.7709C238.734 93.4958 238.844 96.2698 238.837 99.0214C238.818 107.28 238.711 115.541 238.876 123.796C238.996 129.82 235.336 130.689 230.55 130.689C225.893 130.689 221.945 130.224 221.971 124.089C222.048 106.071 222.006 88.0527 222.03 70.0344C222.034 66.5194 222.81 63.1913 227.049 63.0147C231.573 62.8263 237.092 60.9161 238.51 67.9555C260.14 57.8392 273.779 60.2947 284.246 76.389Z" fill="white"/>
<path d="M661.799 72.7936C672.913 85.0253 674.897 98.3837 668.173 112.685C661.671 126.516 649.893 131.719 635.107 131.236C620.579 130.761 610.583 123.633 605.01 110.415C598.857 95.8238 604.035 77.909 616.686 68.9377C630.539 59.1133 647.64 60.4406 661.799 72.7936ZM644.497 118.069C657.34 111.799 662.016 100.249 656.776 87.7383C652.367 77.2142 640.105 72.0346 629.332 76.146C618.363 80.3326 612.793 92.6892 616.518 104.573C620.054 115.852 631.037 121.498 644.497 118.069Z" fill="#09929E"/>
<path d="M694.364 126.17C686.352 119.911 684.031 111.506 683.685 102.57C683.268 91.8266 683.694 81.0529 683.522 70.2958C683.436 64.8628 686.37 63.4351 691.072 63.4633C696.052 63.4931 696.538 66.6134 696.476 70.5202C696.329 79.7772 696.246 89.0375 696.322 98.295C696.431 111.438 702.489 119.138 712.755 119.46C723.78 119.806 732.262 111.09 732.685 98.4768C732.996 89.2276 732.916 79.9579 732.734 70.7027C732.643 66.0917 734.073 63.8434 739.081 63.7399C744.205 63.634 745.551 65.984 745.52 70.5689C745.401 87.834 745.48 105.1 745.444 122.366C745.436 125.871 745.782 129.708 740.818 130.371C736.346 130.969 732.106 131.079 731.846 124.443C719.49 132.794 707.347 134.401 694.364 126.17Z" fill="#09929E"/>
<path d="M562.48 51.5657C556.558 51.5158 551.296 51.4032 546.04 51.5318C542.02 51.6303 539.173 50.7878 539.069 45.9306C538.968 41.1921 541.086 38.9612 545.754 38.9416C557.776 38.8912 569.797 38.7984 581.819 38.7658C588.581 38.7474 595.343 38.8569 602.105 38.8282C606.52 38.8095 610.076 39.4229 610.07 45.1946C610.064 50.8088 606.969 51.8205 602.29 51.5426C598.546 51.3203 594.777 51.4325 591.022 51.5151C582.355 51.7055 581.357 52.7263 581.341 61.801C581.307 81.8377 581.374 101.875 581.328 121.911C581.32 125.606 581.86 129.823 576.394 130.44C570.687 131.084 567.45 129.469 567.525 122.78C567.764 101.745 567.612 80.7041 567.536 59.6656C567.524 56.2886 568.33 52.2547 562.48 51.5657Z" fill="#09929E"/>
<path d="M783.825 64.7127C786.528 63.9037 788.669 63.1343 790.875 62.8222C794.26 62.3431 796.99 63.233 796.894 67.3762C796.819 70.629 798.186 74.263 792.899 75.5413C777.788 79.1952 774.347 83.8954 774.285 99.5627C774.254 107.553 774.143 115.546 774.318 123.533C774.421 128.216 772.638 130.559 767.79 130.406C763.109 130.258 761.263 127.992 761.302 123.317C761.446 106.089 761.341 88.8595 761.403 71.6306C761.415 68.2593 760.607 64.3476 765.882 63.7446C770.714 63.1923 774.509 63.8538 774.548 70.232C777.823 68.2567 780.558 66.6069 783.825 64.7127Z" fill="#09929E"/>
</svg>
