<svg width="1016" height="169" viewBox="0 0 1016 169" fill="none" xmlns="http://www.w3.org/2000/svg">
<path d="M624.541 100.749C624.523 97.2701 624.661 94.5033 624.458 91.7618C623.777 82.5599 618.769 77.4656 609.828 76.6992C600.446 75.8951 594.069 80.1074 592.07 89.0654C589.643 99.9401 591.086 111.032 591.17 122.008C591.22 128.475 589.296 130.901 582.642 130.878C575.928 130.855 574.809 127.678 574.888 122.003C575.117 105.474 574.954 88.9402 574.996 72.4082C575.019 63.1243 580.871 59.6704 589.238 64.2259C591.264 65.3286 592.646 66.8042 595.194 65.4661C609.785 57.8036 622.691 60.9781 634.564 72.2262C639.871 68.1442 645.004 63.9494 651.806 62.3332C671.491 57.6557 688.255 69.1568 690.466 89.1458C691.738 100.642 690.91 112.168 691.163 123.678C691.306 130.205 687.172 130.662 682.188 130.661C677.131 130.659 674.12 129.262 674.263 123.415C674.502 113.652 674.364 103.878 674.25 94.1101C674.121 83.0784 668.223 76.7899 658.047 76.6206C648.047 76.4543 641.181 82.7485 640.73 93.3572C640.305 103.359 640.398 113.398 640.686 123.409C640.853 129.171 638.186 130.843 632.976 130.751C627.827 130.661 624.181 129.683 624.471 123.262C624.798 116.013 624.543 108.737 624.541 100.749Z" fill="#0E3661"/>
<path d="M266.884 38.4717C286.717 39.7133 302.107 47.216 309.992 65.5671C317.146 82.2142 315.429 98.4562 304.444 113.062C295.344 125.162 281.982 129.444 267.623 130.424C257.166 131.137 246.622 130.54 236.118 130.617C231.192 130.652 228.966 128.69 229 123.441C229.17 97.4275 229.157 71.4121 229.02 45.3986C228.992 40.203 231.027 38.2775 236.152 38.3957C246.153 38.6265 256.162 38.4664 266.884 38.4717ZM288.284 105.911C297.662 95.5175 299.251 83.5906 293.954 71.073C288.786 58.8614 278.427 54.0763 265.623 53.9435C260.624 53.8917 255.623 53.9988 250.623 53.9999C246.959 54.0007 245.135 55.6385 245.147 59.4572C245.203 76.2082 245.158 92.9595 245.174 109.711C245.176 112.084 245.618 114.656 248.476 114.765C262.129 115.284 276.195 117.496 288.284 105.911Z" fill="#0E3661"/>
<path d="M540.776 129.639C517.963 135.777 498.752 126.737 493.367 106.898C489.661 93.2476 492.107 80.4169 503.239 70.5903C514.397 60.7414 527.245 58.7002 540.993 64.2857C554.457 69.7559 560.517 80.6981 562.204 94.5845C562.979 100.963 560.427 103.768 553.825 103.66C539.362 103.423 524.893 103.586 509.601 103.586C510.484 111.616 515.589 114.922 521.723 116.469C528.694 118.227 535.832 117.955 541.604 112.835C547.335 107.752 551.035 112.151 554.184 115.669C558.278 120.242 552.893 122.179 550.398 124.256C547.763 126.45 544.396 127.765 540.776 129.639ZM510.331 85.4107C509.703 87.0114 508.551 89.5033 511.131 89.5794C522.158 89.9049 533.2 89.718 544.776 89.718C538.507 73.1607 521.881 71.3795 510.331 85.4107Z" fill="#0E3661"/>
<path d="M331.959 75.3754C342.146 63.4874 354.346 58.8021 369.195 62.6309C382.712 66.1166 393.204 73.7272 396.017 87.9648C398.488 100.478 396.788 113.395 396.778 126.135C396.776 129.356 394.305 130.082 391.67 130.517C385.72 131.498 382.996 130.329 380.064 125.412C360.973 134.954 345.467 133.246 333.764 120.314C323.141 108.575 322.27 90.4972 331.959 75.3754ZM345.716 109.865C354.227 118.367 364.79 119.525 373.235 112.882C381.303 106.536 383.293 94.7938 377.819 85.8373C372.408 76.9832 361.572 73.7317 352.41 78.0303C341.242 83.2707 337.751 99.2903 345.716 109.865Z" fill="#0E3661"/>
<path d="M475.246 76.389C482.116 92.824 478.862 109.501 478.961 125.874C478.997 131.699 473.42 130.397 469.629 130.571C465.233 130.772 462.462 129.065 462.473 124.095C462.495 113.085 462.648 102.063 462.203 91.0679C461.84 82.0673 456.054 76.8603 447.229 76.5983C437.772 76.3175 431.012 81.8167 430.032 90.7709C429.734 93.4958 429.844 96.2698 429.837 99.0214C429.818 107.28 429.711 115.541 429.876 123.796C429.996 129.82 426.336 130.689 421.55 130.689C416.893 130.689 412.945 130.224 412.971 124.089C413.048 106.071 413.006 88.0527 413.03 70.0344C413.034 66.5194 413.81 63.1913 418.049 63.0147C422.573 62.8263 428.092 60.9161 429.51 67.9555C451.14 57.8392 464.779 60.2947 475.246 76.389Z" fill="#0E3661"/>
<path d="M852.799 72.7936C863.913 85.0253 865.897 98.3837 859.173 112.685C852.671 126.516 840.893 131.719 826.107 131.236C811.579 130.761 801.583 123.633 796.01 110.415C789.857 95.8238 795.035 77.909 807.686 68.9377C821.539 59.1133 838.64 60.4406 852.799 72.7936ZM835.497 118.069C848.34 111.799 853.016 100.249 847.776 87.7383C843.367 77.2142 831.105 72.0346 820.332 76.146C809.363 80.3326 803.793 92.6892 807.518 104.573C811.054 115.852 822.037 121.498 835.497 118.069Z" fill="#09929E"/>
<path d="M885.364 126.17C877.352 119.911 875.031 111.506 874.685 102.57C874.268 91.8266 874.694 81.0529 874.522 70.2958C874.436 64.8628 877.37 63.4351 882.072 63.4633C887.052 63.4931 887.538 66.6134 887.476 70.5202C887.329 79.7772 887.246 89.0375 887.322 98.295C887.431 111.438 893.489 119.138 903.755 119.46C914.78 119.806 923.262 111.09 923.685 98.4768C923.996 89.2276 923.916 79.9579 923.734 70.7027C923.643 66.0917 925.073 63.8434 930.081 63.7399C935.205 63.634 936.551 65.984 936.52 70.5689C936.401 87.834 936.48 105.1 936.444 122.366C936.436 125.871 936.782 129.708 931.818 130.371C927.346 130.969 923.106 131.079 922.846 124.443C910.49 132.794 898.347 134.401 885.364 126.17Z" fill="#09929E"/>
<path d="M753.48 51.5657C747.558 51.5158 742.296 51.4032 737.04 51.5318C733.02 51.6303 730.173 50.7878 730.069 45.9306C729.968 41.1921 732.086 38.9612 736.754 38.9416C748.776 38.8912 760.797 38.7984 772.819 38.7658C779.581 38.7474 786.343 38.8569 793.105 38.8282C797.52 38.8095 801.076 39.4229 801.07 45.1946C801.064 50.8088 797.969 51.8205 793.29 51.5426C789.546 51.3203 785.777 51.4325 782.022 51.5151C773.355 51.7055 772.357 52.7263 772.341 61.801C772.307 81.8377 772.374 101.875 772.328 121.911C772.32 125.606 772.86 129.823 767.394 130.44C761.687 131.084 758.45 129.469 758.525 122.78C758.764 101.745 758.612 80.7041 758.536 59.6656C758.524 56.2886 759.33 52.2547 753.48 51.5657Z" fill="#09929E"/>
<path d="M974.825 64.7127C977.528 63.9037 979.669 63.1343 981.875 62.8222C985.26 62.3431 987.99 63.233 987.894 67.3762C987.819 70.629 989.186 74.263 983.899 75.5413C968.788 79.1952 965.347 83.8954 965.285 99.5627C965.254 107.553 965.143 115.546 965.318 123.533C965.421 128.216 963.638 130.559 958.79 130.406C954.109 130.258 952.263 127.992 952.302 123.317C952.446 106.089 952.341 88.8595 952.403 71.6306C952.415 68.2593 951.607 64.3476 956.882 63.7446C961.714 63.1923 965.509 63.8538 965.548 70.232C968.823 68.2567 971.558 66.6069 974.825 64.7127Z" fill="#09929E"/>
<path d="M57.6866 146.456C56.5356 146.455 55.6702 146.454 54.8047 146.453C47.7427 146.441 44.7042 143.212 44.7875 136.145C44.8138 133.912 45.8236 132.883 47.7081 132.117C54.4713 129.368 61.3537 129.314 68.3476 130.986C74.545 132.468 80.3301 135.096 86.2345 137.393C97.2635 141.684 108.264 142.532 119.159 136.996C126.721 133.153 132.678 127.592 136.864 120.129C135.919 119.985 135.667 120.815 135.167 121.233C134.58 121.725 134.072 122.312 133.544 122.871C120.407 136.783 105.565 140.195 87.6918 133.484C81.8532 131.292 76.1914 128.615 70.0722 127.181C63.2884 125.59 56.5751 125.455 49.9031 127.698C49.2722 127.91 48.6126 128.039 47.9625 128.189C47.8967 128.205 47.804 128.104 47.5511 127.956C47.9645 126.169 49.4807 125.252 50.7836 124.27C59.18 117.942 68.6321 116.717 78.7137 118.615C84.6736 119.738 90.4109 121.68 96.2335 123.308C104.64 125.66 113.026 126.396 121.362 123.013C121.706 122.873 122.024 122.672 122.353 122.306C111.121 124.407 100.698 121.251 90.3251 117.685C83.5335 115.35 76.558 114.163 69.3582 114.724C67.5724 114.864 65.8061 115.253 63.8625 115.554C63.8202 114.287 64.7624 114.101 65.4757 113.839C69.8994 112.22 74.3555 110.764 79.0824 110.212C83.6685 109.677 87.6788 107.536 91.5403 105.15C93.4736 103.956 95.4338 103.119 97.777 103.403C100.492 103.731 102.465 101.943 104.672 100.84C107.659 99.3463 110.375 97.244 113.897 96.9833C116.793 96.7689 119.434 97.5135 121.898 98.9264C126.917 101.804 131.978 104.546 137.831 105.359C138.146 105.403 138.416 105.769 139.024 106.222C129.349 113.733 118.229 113.371 107.167 113.267C119.2 116.612 130.265 114.935 140.198 107.079C142.271 105.44 143.508 103.447 143.993 100.862C145.369 93.5413 145.449 86.159 145.249 78.7516C145.199 76.911 144.599 76.3515 142.76 77.0128C118.803 85.6297 94.2272 92.4665 70.5922 102.003C61.3072 105.75 52.3449 110.168 44.2046 116.097C40.0584 119.117 36.3237 122.526 33.3994 126.79C31.1349 130.091 30.0199 133.803 29.1438 137.69C27.2815 133.48 27.8696 129.353 29.6425 125.362C31.7887 120.53 35.1296 116.563 39.2296 113.262C50.338 104.319 63.2758 98.9046 76.5459 94.2158C97.9354 86.6582 119.913 80.974 141.487 73.9975C153.378 70.1523 165.043 65.682 176.771 61.3882C177.811 61.0077 178.764 60.221 180.036 60.4846C180.21 61.7346 179.162 61.8679 178.483 62.2074C175.13 63.8835 171.806 65.636 168.358 67.0924C166.046 68.069 165.574 69.4 165.96 71.8104C167.983 84.4454 167.387 96.9206 162.671 108.948C155.702 126.725 142.687 137.947 124.583 143.475C117.643 145.594 110.511 146.447 103.261 146.442C88.1648 146.431 73.0685 146.45 57.6866 146.456Z" fill="url(#paint0_linear_88_62)"/>
<path d="M58.8978 97.3015C54.324 99.5556 49.9517 101.726 45.5526 103.911C44.3437 102.878 44.8364 101.539 44.8345 100.378C44.8001 79.3163 44.8018 58.2544 44.8142 37.1926C44.8156 34.6652 44.5886 32.184 43.429 29.9055C42.2066 27.5037 40.0742 26.319 37.5254 25.6964C36.3628 25.4124 34.8157 25.2682 35.0839 23.4836C35.3205 21.9087 36.7191 22.0817 37.8392 22.0817C60.2472 22.0821 82.6602 21.8239 105.061 22.2235C118.304 22.4597 130.947 25.6669 142.116 33.3106C152.493 40.4124 159.414 50.0798 163.46 61.9169C164.036 63.6018 163.55 64.4082 161.942 64.9039C156.984 66.4323 152.031 67.9782 147.103 69.5973C145.032 70.2776 144.317 69.6653 143.869 67.505C141.782 57.4508 137.79 48.2795 130.586 40.7451C121.936 31.6994 111.027 27.6887 98.8185 27.0553C91.4317 26.672 84.0108 26.8311 76.6073 26.9201C70.12 26.998 67.5925 29.5906 67.5689 36.1724C67.5052 53.8679 67.4614 71.5644 67.5992 89.259C67.6253 92.6007 66.9698 94.7843 63.3577 95.4719C61.8809 95.753 60.5154 96.6186 58.8978 97.3015Z" fill="url(#paint1_linear_88_62)"/>
<path d="M107.397 62.1437C107.759 64.5324 106.483 65.3999 104.712 66.1487C100.642 67.8696 100.459 68.4483 102.925 72.1046C104.203 73.9997 102.69 74.7629 101.711 75.5996C95.3646 81.0271 84.7112 78.1588 81.228 70.1416C77.9869 62.6816 81.5319 54.143 88.9934 51.4375C96.8975 48.5714 104.648 52.5974 107.028 60.8051C107.135 61.1733 107.25 61.5392 107.397 62.1437Z" fill="url(#paint2_linear_88_62)"/>
<path d="M184.425 60.9392C183.39 59.0508 182.38 57.3687 180.962 55.0087C184.818 55.564 188.408 56.7875 191.047 53.2243C189.851 50.7039 186.817 49.4672 185.377 47.065C185.937 46.0067 186.698 45.6025 187.426 45.9809C190.034 47.3358 193.152 47.4125 195.544 49.2706C197.025 50.421 198.46 50.1676 200.105 49.4555C202.099 48.5926 204.175 47.1449 206.563 48.7946C206.115 51.0519 204.248 51.5929 202.728 52.4897C200.983 53.5195 199.315 54.031 199.36 57.0369C199.389 58.9583 197.972 61.4513 197.126 63.6587C196.844 64.3958 196.239 65.0274 195.358 64.8441C194.426 64.6504 194.413 63.7558 194.31 62.9981C194.057 61.124 193.81 59.249 193.515 57.0301C190.766 58.3556 187.388 57.9311 186.601 61.6436C186.477 62.2309 186.107 62.7583 185.419 62.6818C184.531 62.583 184.542 61.8068 184.425 60.9392Z" fill="#103864"/>
<path d="M111.846 70.5165C110.338 71.5788 109.639 70.2715 108.668 69.8049C107.384 69.1884 106.04 68.6986 104.573 68.0928C105.69 66.2601 107.353 66.8266 108.599 67.3209C110.081 67.9089 111.215 67.9948 112.601 67.1172C113.876 66.3092 115.325 66.3036 116.767 67.5486C115.296 68.8176 113.066 68.6971 111.846 70.5165Z" fill="#114173"/>
<path d="M119.683 62.4621C118.298 61.1049 116.644 60.6264 115.132 59.526C118.483 59.202 121.827 59.9038 125.206 59.248C123.251 60.2481 122.154 62.3848 119.683 62.4621Z" fill="#043B6A"/>
<defs>
<linearGradient id="paint0_linear_88_62" x1="104.028" y1="60.4316" x2="104.028" y2="146.456" gradientUnits="userSpaceOnUse">
<stop stop-color="#0E335B"/>
<stop offset="0.307287" stop-color="#113C67"/>
<stop offset="0.450509" stop-color="#105986"/>
<stop offset="0.627653" stop-color="#13ABB4"/>
<stop offset="0.770875" stop-color="#0C6582"/>
<stop offset="1" stop-color="#0D9DA9"/>
</linearGradient>
<linearGradient id="paint1_linear_88_62" x1="99.3733" y1="22" x2="99.587" y2="92.9778" gradientUnits="userSpaceOnUse">
<stop stop-color="#10406E"/>
<stop offset="1" stop-color="#0F325C"/>
</linearGradient>
<linearGradient id="paint2_linear_88_62" x1="93.7415" y1="50.5176" x2="103.338" y2="74.8012" gradientUnits="userSpaceOnUse">
<stop stop-color="#C99C4F"/>
<stop offset="1" stop-color="#F7E2B8"/>
</linearGradient>
</defs>
</svg>
